<svg width="300" height="300" xmlns="http://www.w3.org/2000/svg" preserveAspectRatio="xMidYMid meet">
 <metadata>Created by potrace 1.10, written by Peter Selinger 2001-2011</metadata>

 <g>
  <title>background</title>
  <rect fill="none" id="canvas_background" height="402" width="582" y="-1" x="-1"/>
 </g>
 <g>
  <title>Layer 1</title>
  <g id="svg_1" fill="#ffffff" transform="translate(0,300) scale(0.10000000149011612,-0.10000000149011612) ">
   <path id="svg_2" d="m2230,2315c-240,-54 -432,-214 -549,-459c-56,-117 -76,-184 -92,-316c-44,-364 104,-685 374,-810c99,-46 170,-61 297,-62c138,0 226,12 424,59l149,35l-7,137c-11,219 -6,553 10,629l4,22l-284,0l-283,0l-7,-72c-4,-40 -9,-92 -12,-115l-6,-43l151,0l151,0l0,-184l0,-183l-47,-14c-29,-9 -96,-14 -168,-14c-105,0 -127,3 -172,24c-107,48 -195,175 -235,339c-29,119 -32,349 -5,437c37,121 111,216 207,264c72,37 98,42 194,42c97,-1 197,-27 315,-82c46,-21 85,-38 86,-37c9,16 125,306 125,314c0,17 -80,52 -173,75c-109,27 -353,35 -447,14z"/>
   <path id="svg_3" d="m310,2289c-85,-15 -157,-28 -159,-29c-5,0 10,-885 18,-1086c8,-162 10,-175 38,-235c37,-79 71,-120 146,-175c108,-80 238,-110 404,-93c288,29 506,215 557,475c12,59 20,216 30,624c8,300 13,546 12,547c-3,3 -318,-56 -323,-60c-2,-3 2,-223 10,-489c9,-291 12,-509 7,-548c-17,-127 -53,-193 -128,-237c-40,-24 -60,-28 -143,-31c-160,-7 -242,36 -299,153c-33,69 -36,199 -16,710c18,467 19,505 9,504c-5,-1 -78,-14 -163,-30z"/>
  </g>
 </g>
</svg>