<?xml version="1.0" standalone="no"?>
<!DOCTYPE svg PUBLIC "-//W3C//DTD SVG 20010904//EN"
 "http://www.w3.org/TR/2001/REC-SVG-20010904/DTD/svg10.dtd">
<svg version="1.0" xmlns="http://www.w3.org/2000/svg"
 width="512.000000pt" height="512.000000pt" viewBox="0 0 512.000000 512.000000"
 preserveAspectRatio="xMidYMid meet">
<metadata>
Created by potrace 1.10, written by Peter Selinger 2001-2011
</metadata>
<g transform="translate(0.000000,512.000000) scale(0.100000,-0.100000)"
fill="#ffffff" stroke="none">
<path d="M3415 4106 c-130 -21 -203 -45 -320 -102 -373 -181 -634 -558 -706
-1019 -16 -104 -16 -368 0 -470 77 -486 382 -814 821 -884 105 -17 330 -13
470 9 192 29 543 110 562 128 3 4 0 143 -7 309 -11 251 -10 341 1 530 7 125
13 254 14 286 l0 57 -420 0 c-231 0 -420 -3 -420 -7 0 -5 -7 -69 -15 -143 -8
-74 -15 -152 -15 -172 l0 -38 225 0 225 0 0 -270 0 -269 -52 -15 c-135 -39
-347 -48 -453 -21 -218 57 -376 260 -440 566 -8 39 -20 135 -27 214 -26 321
37 548 198 709 169 170 419 210 714 115 94 -31 208 -79 262 -110 26 -16 50
-24 53 -20 23 38 195 468 190 478 -12 33 -204 97 -375 127 -130 23 -383 29
-485 12z"/>
<path d="M472 4054 c-134 -23 -246 -44 -248 -47 -6 -5 22 -1543 30 -1738 9
-175 65 -306 184 -426 110 -112 231 -176 393 -209 121 -24 338 -15 474 20 270
70 480 236 595 470 57 115 79 202 91 356 12 163 48 1602 40 1611 -5 5 -171
-23 -457 -76 l-30 -5 3 -83 c10 -235 33 -1154 33 -1297 -1 -430 -121 -590
-445 -590 -199 0 -328 68 -401 212 -62 122 -70 212 -55 608 30 808 42 1168 39
1201 l-3 36 -243 -43z"/>
</g>
</svg>
