<?xml version="1.0" standalone="no"?>
<!DOCTYPE svg PUBLIC "-//W3C//DTD SVG 20010904//EN"
 "http://www.w3.org/TR/2001/REC-SVG-20010904/DTD/svg10.dtd">
<svg version="1.0" xmlns="http://www.w3.org/2000/svg"
 width="1024.000000pt" height="1024.000000pt" viewBox="0 0 1024.000000 1024.000000"
 preserveAspectRatio="xMidYMid meet">
<metadata>
Created by potrace 1.11, written by Peter Selinger 2001-2013
</metadata>
<g transform="translate(0.000000,1024.000000) scale(0.100000,-0.100000)"
fill="#000000" stroke="none">
<path d="M854 10224 c-111 -18 -261 -74 -358 -131 -105 -63 -252 -204 -322
-309 -62 -93 -124 -235 -151 -346 -17 -69 -18 -291 -21 -4268 -3 -3207 -1
-4215 9 -4280 32 -231 135 -435 301 -596 141 -137 313 -231 501 -271 78 -17
297 -18 4307 -18 4010 0 4229 1 4307 18 194 42 379 144 519 289 152 155 241
330 279 548 13 74 15 606 15 4255 0 3670 -2 4181 -15 4263 -36 224 -141 421
-311 583 -146 140 -330 230 -539 264 -130 21 -8395 21 -8521 -1z m7394 -2515
c278 -20 605 -86 847 -169 104 -36 313 -130 354 -158 12 -9 -26 -116 -206
-579 -3 -8 -20 -2 -52 18 -169 103 -486 205 -791 253 -143 23 -402 39 -515 32
-417 -27 -754 -164 -1017 -414 -241 -230 -409 -533 -503 -907 -52 -207 -67
-332 -73 -607 -9 -494 62 -875 225 -1203 224 -451 598 -735 1086 -826 142 -26
451 -36 667 -20 141 10 389 47 483 72 l37 10 0 929 0 930 350 0 350 0 -2
-1167 -3 -1167 -74 -23 c-92 -29 -414 -94 -631 -127 -269 -41 -477 -58 -790
-63 -314 -6 -442 4 -660 48 -663 135 -1187 530 -1481 1120 -198 396 -286 789
-296 1322 -8 395 21 666 101 958 278 1013 1048 1655 2091 1742 96 8 368 6 503
-4z m-6788 -1789 l5 -1685 22 -111 c46 -227 109 -400 193 -524 55 -82 197
-224 275 -275 200 -131 429 -195 693 -195 367 0 646 108 854 329 163 174 262
391 313 688 30 176 35 445 35 1951 l0 1512 345 0 345 0 0 -1662 c0 -1752 0
-1759 -45 -1993 -125 -654 -481 -1096 -1062 -1319 -199 -77 -426 -116 -718
-123 -403 -10 -715 49 -1010 192 -485 235 -784 651 -900 1252 -44 229 -45 259
-45 1999 l0 1654 348 -2 347 -3 5 -1685z"/>
</g>
</svg>
