<?xml version="1.0" standalone="no"?>
<!DOCTYPE svg PUBLIC "-//W3C//DTD SVG 20010904//EN"
 "http://www.w3.org/TR/2001/REC-SVG-20010904/DTD/svg10.dtd">
<svg version="1.0" xmlns="http://www.w3.org/2000/svg"
 width="1024.000000pt" height="1024.000000pt" viewBox="0 0 1024.000000 1024.000000"
 preserveAspectRatio="xMidYMid meet">
<metadata>
Created by potrace 1.11, written by Peter Selinger 2001-2013
</metadata>
<g transform="translate(0.000000,1024.000000) scale(0.100000,-0.100000)"
fill="#000000" stroke="none">
<path d="M910 10229 c-440 -50 -786 -367 -888 -812 -15 -66 -16 -405 -20
-4217 -2 -2864 0 -4180 8 -4257 17 -185 71 -342 167 -486 149 -223 383 -380
651 -434 82 -17 309 -18 4292 -18 3983 0 4210 1 4292 18 448 91 771 449 818
908 14 141 14 8237 0 8378 -51 496 -418 865 -913 920 -118 13 -8292 13 -8407
0z m2406 -2612 c465 -51 770 -168 986 -380 214 -209 326 -478 344 -826 17
-317 -112 -691 -315 -913 -93 -102 -288 -231 -404 -268 -22 -7 -35 -15 -30
-19 4 -4 44 -18 88 -30 170 -48 353 -151 481 -273 257 -244 355 -453 384 -823
21 -264 -18 -493 -128 -744 -168 -384 -451 -593 -937 -690 -255 -51 -350 -56
-1120 -56 -774 0 -762 -1 -833 52 -43 32 -69 87 -82 170 -7 46 -10 796 -8
2353 3 2462 0 2313 54 2386 29 39 76 62 151 74 99 15 1206 4 1369 -13z m3660
0 c172 -19 402 -66 526 -107 296 -99 540 -302 667 -556 182 -363 180 -813 -4
-1189 -131 -267 -286 -409 -595 -542 -19 -8 -21 -12 -10 -16 8 -3 60 -20 115
-37 192 -62 333 -148 476 -290 266 -265 359 -506 359 -930 0 -213 -28 -352
-112 -565 -186 -471 -531 -692 -1203 -772 -131 -16 -242 -18 -870 -18 -811 0
-789 -2 -858 74 -66 74 -62 -101 -62 2466 l0 2330 22 46 c34 74 90 106 208
123 17 2 293 3 615 1 440 -2 620 -7 726 -18z"/>
<path d="M2110 5111 l0 -2161 608 0 c626 0 782 8 967 45 257 52 472 167 601
323 71 86 137 220 171 347 24 91 26 117 27 290 0 179 -2 195 -27 278 -54 174
-142 313 -284 448 -131 125 -254 199 -433 259 -194 65 -259 72 -745 79 -479 8
-478 8 -524 67 -45 57 -50 167 -10 218 42 54 80 59 514 67 409 7 491 14 629
49 272 71 454 222 581 483 63 130 86 226 92 382 9 225 -33 387 -143 551 -129
195 -316 308 -616 373 -225 49 -294 53 -865 58 l-543 5 0 -2161z"/>
<path d="M5770 5110 l0 -2160 605 0 c749 0 902 12 1140 91 407 136 614 425
632 884 11 292 -78 517 -292 730 -143 144 -260 216 -463 286 -179 62 -264 71
-742 78 -477 8 -469 7 -523 71 -49 57 -48 171 2 221 48 48 78 51 506 59 430 8
536 18 683 66 181 59 305 145 412 287 154 201 220 414 207 661 -3 61 -15 147
-26 191 -42 163 -156 343 -279 440 -121 97 -326 175 -563 214 -205 33 -358 41
-840 41 l-459 0 0 -2160z"/>
</g>
</svg>
